HIERARCHY
ROOT hip
{
  OFFSET 0 0 0
  CHANNELS 6 Xposition Yposition Zposition Zrotation Yrotation Xrotation
  JOINT abdomen
  {
    OFFSET 0 20.6881 -0.73152
    CHANNELS 3 Zrotation Xrotation Yrotation
    JOINT chest
    {
      OFFSET 0 11.7043 -0.48768
      CHANNELS 3 Zrotation Xrotation Yrotation
      JOINT neck
      {
        OFFSET 0 22.1894 -2.19456
        CHANNELS 3 Zrotation Xrotation Yrotation
        JOINT head
        {
          OFFSET -0.24384 7.07133 1.2192
          CHANNELS 3 Zrotation Xrotation Yrotation
          JOINT leftEye
          {
            OFFSET 4.14528 8.04674 8.04672
            CHANNELS 3 Zrotation Xrotation Yrotation
            End Site
            {
              OFFSET 1 0 0
            }
          }
          JOINT rightEye
          {
            OFFSET -3.6576 8.04674 8.04672
            CHANNELS 3 Zrotation Xrotation Yrotation
            End Site
            {
              OFFSET 1 0 0
            }
          }
        }
      }
      JOINT rCollar
      {
        OFFSET -2.68224 19.2634 -4.8768
        CHANNELS 3 Zrotation Xrotation Yrotation
        JOINT rShldr
        {
          OFFSET -8.77824 -1.95073 1.46304
          CHANNELS 3 Zrotation Xrotation Yrotation
          JOINT rForeArm
          {
            OFFSET -28.1742 -1.7115 0.48768
            CHANNELS 3 Zrotation Xrotation Yrotation
            JOINT rHand
            {
              OFFSET -22.5879 0.773209 7.07136
              CHANNELS 3 Zrotation Xrotation Yrotation
              JOINT rThumb1
              {
                OFFSET -1.2192 -0.487915 3.41376
                CHANNELS 3 Zrotation Xrotation Yrotation
                JOINT rThumb2
                {
                  OFFSET -3.37035 -0.52449 3.41376
                  CHANNELS 3 Zrotation Xrotation Yrotation
                  End Site
                  {
                    OFFSET -1.78271 -1.18214 1.43049
                  }
                }
              }
              JOINT rIndex1
              {
                OFFSET -7.75947 0.938293 5.60832
                CHANNELS 3 Zrotation Xrotation Yrotation
                JOINT rIndex2
                {
                  OFFSET -2.54057 -0.884171 1.56538
                  CHANNELS 3 Zrotation Xrotation Yrotation
                  End Site
                  {
                    OFFSET -1.62519 -0.234802 1.16502
                  }
                }
              }
              JOINT rMid1
              {
                OFFSET -8.24714 1.18213 3.41376
                CHANNELS 3 Zrotation Xrotation Yrotation
                JOINT rMid2
                {
                  OFFSET -3.10165 -0.590103 1.0647
                  CHANNELS 3 Zrotation Xrotation Yrotation
                  End Site
                  {
                    OFFSET -2.48547 -0.328903 0.83742
                  }
                }
              }
              JOINT rRing1
              {
                OFFSET -8.82822 0.546677 1.51678
                CHANNELS 3 Zrotation Xrotation Yrotation
                JOINT rRing2
                {
                  OFFSET -2.60934 -0.819778 -0.0198488
                  CHANNELS 3 Zrotation Xrotation Yrotation
                  End Site
                  {
                    OFFSET -2.33842 -0.294052 0.168128
                  }
                }
              }
              JOINT rPinky1
              {
                OFFSET -8.27202 -0.0477905 -0.4584
                CHANNELS 3 Zrotation Xrotation Yrotation
                JOINT rPinky2
                {
                  OFFSET -1.82734 -0.647385 -0.700984
                  CHANNELS 3 Zrotation Xrotation Yrotation
                  End Site
                  {
                    OFFSET -1.69225 -0.51767 -0.607171
                  }
                }
              }
            }
          }
        }
      }
      JOINT lCollar
      {
        OFFSET 2.68224 19.2634 -4.8768
        CHANNELS 3 Zrotation Xrotation Yrotation
        JOINT lShldr
        {
          OFFSET 8.77824 -1.95073 1.46304
          CHANNELS 3 Zrotation Xrotation Yrotation
          JOINT lForeArm
          {
            OFFSET 28.1742 -1.7115 0.48768
            CHANNELS 3 Zrotation Xrotation Yrotation
            JOINT lHand
            {
              OFFSET 22.5879 0.773209 7.07136
              CHANNELS 3 Zrotation Xrotation Yrotation
              JOINT lThumb1
              {
                OFFSET 1.2192 -0.487915 3.41376
                CHANNELS 3 Zrotation Xrotation Yrotation
                JOINT lThumb2
                {
                  OFFSET 3.37035 -0.52449 3.41376
                  CHANNELS 3 Zrotation Xrotation Yrotation
                  End Site
                  {
                    OFFSET 1.78271 -1.18214 1.43049
                  }
                }
              }
              JOINT lIndex1
              {
                OFFSET 7.75947 0.938293 5.60832
                CHANNELS 3 Zrotation Xrotation Yrotation
                JOINT lIndex2
                {
                  OFFSET 2.54057 -0.884171 1.56538
                  CHANNELS 3 Zrotation Xrotation Yrotation
                  End Site
                  {
                    OFFSET 1.62519 -0.234802 1.16502
                  }
                }
              }
              JOINT lMid1
              {
                OFFSET 8.24714 1.18213 3.41376
                CHANNELS 3 Zrotation Xrotation Yrotation
                JOINT lMid2
                {
                  OFFSET 3.10165 -0.590103 1.0647
                  CHANNELS 3 Zrotation Xrotation Yrotation
                  End Site
                  {
                    OFFSET 2.48547 -0.328903 0.83742
                  }
                }
              }
              JOINT lRing1
              {
                OFFSET 8.82822 0.546677 1.51678
                CHANNELS 3 Zrotation Xrotation Yrotation
                JOINT lRing2
                {
                  OFFSET 2.60934 -0.819778 -0.0198488
                  CHANNELS 3 Zrotation Xrotation Yrotation
                  End Site
                  {
                    OFFSET 2.33842 -0.294052 0.168128
                  }
                }
              }
              JOINT lPinky1
              {
                OFFSET 8.27202 -0.0477905 -0.4584
                CHANNELS 3 Zrotation Xrotation Yrotation
                JOINT lPinky2
                {
                  OFFSET 1.82734 -0.647385 -0.700984
                  CHANNELS 3 Zrotation Xrotation Yrotation
                  End Site
                  {
                    OFFSET 1.69225 -0.51767 -0.607171
                  }
                }
              }
            }
          }
        }
      }
    }
  }
  JOINT rButtock
  {
    OFFSET -8.77824 4.35084 1.2192
    CHANNELS 3 Zrotation Xrotation Yrotation
    JOINT rThigh
    {
      OFFSET 0 -1.70687 -2.19456
      CHANNELS 3 Zrotation Xrotation Yrotation
      JOINT rShin
      {
        OFFSET 0 -36.8199 0.73152
        CHANNELS 3 Zrotation Xrotation Yrotation
        JOINT rFoot
        {
          OFFSET 0.73152 -45.1104 -5.12064
          CHANNELS 3 Zrotation Xrotation Yrotation
          End Site
          {
            OFFSET -1.1221 -3.69964 12.103
          }
        }
      }
    }
  }
  JOINT lButtock
  {
    OFFSET 8.77824 4.35084 1.2192
    CHANNELS 3 Zrotation Xrotation Yrotation
    JOINT lThigh
    {
      OFFSET 0 -1.70687 -2.19456
      CHANNELS 3 Zrotation Xrotation Yrotation
      JOINT lShin
      {
        OFFSET 0 -36.8199 0.73152
        CHANNELS 3 Zrotation Xrotation Yrotation
        JOINT lFoot
        {
          OFFSET -0.73152 -45.1104 -5.12064
          CHANNELS 3 Zrotation Xrotation Yrotation
          End Site
          {
            OFFSET 1.1221 -3.69964 12.103
          }
        }
      }
    }
  }
}
MOTION
Frames:	4
Frame Time:	0.03333
4.961099926191254 69.00189729759461 -2.7610000408777267 -7.763099670410156 8.677400588989258 -2.274989366531372 2.3501298427581787 24.399398803710938 6.967660427093506 2.9623100757598877 -12.639699935913086 2.370109796524048 -5.429279804229736 16.5956974029541 -7.543039798736572 4.137720108032227 -37.23979949951172 -13.949898719787598 -0.0 0.0 -0.0 -0.0 0.0 -0.0 -2.3932497151581134e-13 1.0687999964231754e-13 -1.5187898410717188e-13 48.81699752807617 -24.34670066833496 61.45100021362305 -10.566898345947266 -4.494340896606445 18.867000579833984 -0.6313990354537964 -21.99810218811035 -3.2542498111724854 2.2138599842236317e-09 -2.1041899334051095e-09 -6.21816001467046e-11 3.829870198757135e-09 -3.3885498851304874e-09 -7.136629481818701e-11 2.2138599842236317e-09 -2.104179941397888e-09 -6.219339626634124e-11 7.730909824371338 5.474879741668701 0.4173140823841095 2.2138599842236317e-09 -2.104179941397888e-09 -6.217509840311664e-11 2.9055399894714355 0.9651829600334167 0.10290199518203735 2.2138599842236317e-09 -2.104179941397888e-09 -6.217570208688628e-11 10.27859878540039 0.73180091381073 0.025912316516041756 2.2138599842236317e-09 -2.104179941397888e-09 -6.216059611485747e-11 2.221669912338257 -0.733487069606781 -0.208919957280159 -2.393090066388215e-13 1.0688799563333962e-13 -1.5208300385097934e-13 41.316898345947266 23.943601608276367 -134.40499877929688 28.27520179748535 -38.49640655517578 -81.30889892578125 0.5219630002975464 -19.70250701904297 2.889770030975342 -1.8905398080359959e-10 -5.480170137128759e-11 -2.9607898355266116e-09 -2.9251201461022447e-10 -9.5236298014445e-11 -5.117359869188931e-09 -1.8906100296423034e-10 -5.480309955840923e-11 -2.960780065563995e-09 -7.730909824371338 5.474879741668701 -0.4173140823841095 -1.8905499388210956e-10 -5.480280118597136e-11 -2.9607898355266116e-09 -2.9055399894714355 0.9651829600334167 -0.10290199518203735 -1.8905998988572037e-10 -5.480329731688549e-11 -2.9607898355266116e-09 -10.27859878540039 0.73180091381073 -0.025912316516041756 -1.8904999787849874e-10 -5.480309955840923e-11 -2.9607898355266116e-09 -2.221669912338257 -0.733487069606781 0.208919957280159 -2.0321699480147914e-16 0.0 -3.8825099822884138e-19 -41.36689758300781 -58.88600158691406 -22.648197174072266 -92.58909606933594 88.90531158447266 92.8239974975586 -1.2736400365829468 22.30080223083496 3.469749927520752 2.0321699480147914e-16 0.0 3.8825099822884138e-19 8.945870399475098 -45.18140411376953 12.314199447631836 2.8193001747131348 75.83650207519531 -4.26200008392334 9.983439445495605 -20.255901336669922 20.50079917907715
4.418199938774411 68.73019920260067 -2.8980000419509087 -7.96069860458374 8.239599227905273 -2.1289873123168945 2.845710277557373 24.371301651000977 7.489439010620117 2.866959571838379 -12.66610050201416 2.5354294776916504 -5.328710079193115 16.471298217773438 -7.530790328979492 4.241400241851807 -37.0503044128418 -13.881498336791992 -0.0 0.0 -0.0 -0.0 0.0 -0.0 -1.1125699835154088e-13 4.582829748285208e-14 -2.255299760963933e-13 49.459495544433594 -21.194002151489258 64.22229766845703 -10.807899475097656 -4.646109580993652 19.326696395874023 -0.7333449721336365 -23.537004470825195 -3.5104098320007324 2.043669899975953e-09 -1.0556700402730712e-08 -8.025979880699197e-10 3.5484197802304607e-09 -1.8088799791371457e-08 -1.3544699806189442e-09 2.043669899975953e-09 -1.0556700402730712e-08 -8.026089792778635e-10 7.730909824371338 5.474879741668701 0.4173140823841095 2.043669899975953e-09 -1.0556700402730712e-08 -8.025909936648645e-10 2.9055399894714355 0.9651829600334167 0.10290199518203735 2.0436798919831745e-09 -1.0556700402730712e-08 -8.025919373544355e-10 10.27859878540039 0.73180091381073 0.025912316516041756 2.043669899975953e-09 -1.0556700402730712e-08 -8.025779485443252e-10 2.221669912338257 -0.733487069606781 -0.208919957280159 -1.1128699009413726e-13 4.583599870640852e-14 -2.257149816446008e-13 41.10759735107422 23.441999435424805 -134.3909912109375 28.383403778076172 -37.454097747802734 -79.42949676513672 0.26664999127388 -15.010400772094727 2.1528003215789795 -5.900629984623151e-10 7.487689288043775e-12 -2.589860104151853e-09 -9.85373005413237e-10 1.2798999707297476e-11 -4.481299775704883e-09 -5.900639976630373e-10 7.484760207454588e-12 -2.589860104151853e-09 -7.730909824371338 5.474879741668701 -0.4173140823841095 -5.900639976630373e-10 7.483699424049028e-12 -2.589860104151853e-09 -2.9055399894714355 0.9651829600334167 -0.10290199518203735 -5.90067994465926e-10 7.484339537011664e-12 -2.5898498901000266e-09 -10.27859878540039 0.73180091381073 -0.025912316516041756 -5.900589461482753e-10 7.48472030881464e-12 -2.589860104151853e-09 -2.221669912338257 -0.733487069606781 0.208919957280159 -2.0321699480147914e-16 0.0 -3.8825099822884138e-19 -39.20809555053711 -56.26499938964844 -19.878400802612305 -12.90999984741211 85.52083587646484 13.210700035095215 -1.2695199251174927 18.239099502563477 4.880080699920654 2.0321699480147914e-16 0.0 3.8825099822884138e-19 10.936899185180664 -45.82310104370117 13.794198989868164 3.0685698986053467 76.59479522705078 -4.447460651397705 10.072000503540039 -20.545799255371094 20.2539005279541
3.8393999434714514 68.47140333494889 -3.0090000408242576 -8.267899513244629 7.990299701690674 -2.0380091667175293 3.411069631576538 24.27989959716797 8.0012788772583 2.797220230102539 -12.708399772644043 2.706160306930542 -5.264049053192139 16.372699737548828 -7.56387996673584 4.385149955749512 -36.80140686035156 -13.893699645996094 -0.0 0.0 -0.0 -0.0 0.0 -0.0 1.1246099131155887e-13 -1.5948898560332048e-13 -1.505369993156508e-14 49.52569580078125 -18.210800170898438 66.8301010131836 -10.870600700378418 -4.687119960784912 19.444799423217773 -0.7905339598655701 -24.380603790283203 -3.6524899005889893 -1.7321000189696178e-10 -2.4602400117146317e-08 -1.557019846387675e-09 -2.72611017093638e-10 -4.273680076494202e-08 -2.693989920032891e-09 -1.732120002984061e-10 -2.4602400117146317e-08 -1.557019846387675e-09 7.730909824371338 5.474879741668701 0.4173140823841095 -1.732120002984061e-10 -2.4602499593129323e-08 -1.5570099654027558e-09 2.9055399894714355 0.9651829600334167 0.10290199518203735 -1.732069904170075e-10 -2.4602499593129323e-08 -1.557019846387675e-09 10.27859878540039 0.73180091381073 0.025912316516041756 -1.7321899470346125e-10 -2.4602400117146317e-08 -1.5570099654027558e-09 2.221669912338257 -0.733487069606781 -0.208919957280159 1.1238899351104226e-13 -1.5948699338182853e-13 -1.520239995358736e-14 40.49290084838867 23.01129913330078 -134.17799377441406 28.433298110961914 -36.015499114990234 -77.03260040283203 0.067324198782444 -7.299271106719971 1.024399995803833 -6.794149687294748e-10 2.4173599233456855e-10 4.937409925354075e-10 -1.1675499456131888e-09 4.186720137244748e-10 8.501029880036981e-10 -6.794159124190458e-10 2.4173296697682645e-10 4.937429909368518e-10 -7.730909824371338 5.474879741668701 -0.4173140823841095 -6.794159124190458e-10 2.417299971302356e-10 4.937399933346853e-10 -2.9055399894714355 0.9651829600334167 -0.10290199518203735 -6.794199647330856e-10 2.4173296697682645e-10 4.937459885390183e-10 -10.27859878540039 0.73180091381073 -0.025912316516041756 -6.794109719265862e-10 2.417349931338464e-10 4.93743990137574e-10 -2.221669912338257 -0.733487069606781 0.208919957280159 -2.0321699480147914e-16 0.0 -3.8825099822884138e-19 -37.454402923583984 -53.707698822021484 -17.75680160522461 -6.198470115661621 81.44661712646484 6.535430908203125 -1.0770900249481201 14.703997611999512 5.614290237426758 2.0321699480147914e-16 0.0 3.8825099822884138e-19 13.04150104522705 -46.52220153808594 15.276301383972168 3.3719401359558105 77.41973876953125 -4.68265962600708 10.089099884033203 -20.787504196166992 19.909399032592773
3.212699938240898 68.17799889877264 -3.0860000383601576 -8.51659870147705 7.813700199127197 -1.9730130434036255 3.9024503231048584 24.238996505737305 8.425311088562012 2.7002100944519043 -12.808999061584473 2.845130205154419 -5.270949840545654 16.30370330810547 -7.603499412536621 4.645829200744629 -36.54690170288086 -13.88390064239502 -0.0 0.0 -0.0 -0.0 0.0 -0.0 2.005419891563595e-13 -2.491779840189251e-13 6.057149546474447e-14 49.7411994934082 -15.451997756958008 69.37689971923828 -10.896798133850098 -4.704160213470459 19.494699478149414 -0.8779299259185791 -25.616300582885742 -3.86344051361084 -1.033419905205335e-09 -2.8528900131163937e-08 -2.102979790308268e-09 -1.7491199599817264e-09 -4.90638001338084e-08 -3.651440039220688e-09 -1.033419905205335e-09 -2.8528900131163937e-08 -2.102979790308268e-09 7.730909824371338 5.474879741668701 0.4173140823841095 -1.033419905205335e-09 -2.8528900131163937e-08 -2.1029700203456514e-09 2.9055399894714355 0.9651829600334167 0.10290199518203735 -1.0334099131981134e-09 -2.8528900131163937e-08 -2.102979790308268e-09 10.27859878540039 0.73180091381073 0.025912316516041756 -1.033419905205335e-09 -2.852879710246725e-08 -2.1029700203456514e-09 2.221669912338257 -0.733487069606781 -0.208919957280159 2.0049998987470286e-13 -2.49175978244906e-13 6.039439781613254e-14 39.49359893798828 22.880098342895508 -133.6949920654297 28.41499900817871 -34.50419998168945 -74.48970031738281 -0.022153999656438828 1.4953300952911377 -0.20510099828243256 -4.732860214851087e-10 4.026299849080317e-10 1.5059800073657925e-09 -8.237029391899853e-10 6.979009592456009e-10 2.599439774542134e-09 -4.733009539847899e-10 4.026279865065874e-10 1.5059800073657925e-09 -7.730909824371338 5.474879741668701 -0.4173140823841095 -4.732999547840677e-10 4.0262598810514305e-10 1.5059800073657925e-09 -2.9055399894714355 0.9651829600334167 -0.10290199518203735 -4.733049507876785e-10 4.0262898570730954e-10 1.5059800073657925e-09 -10.27859878540039 0.73180091381073 -0.025912316516041756 -4.732809699703466e-10 4.0262898570730954e-10 1.5059800073657925e-09 -2.221669912338257 -0.733487069606781 0.208919957280159 -2.0321699480147914e-16 0.0 -3.8825099822884138e-19 -36.18000411987305 -51.330299377441406 -16.109901428222656 -4.116990089416504 78.02643585205078 4.486999988555908 -0.8907620310783386 11.863602638244629 6.711419582366943 2.0321699480147914e-16 0.0 3.8825099822884138e-19 14.972597122192383 -47.1842041015625 16.547597885131836 3.726409912109375 78.27420043945312 -4.974999904632568 10.116600036621094 -20.937801361083984 19.673402786254883
